<svg width="249" height="31" viewBox="0 0 249 31" fill="none" xmlns="http://www.w3.org/2000/svg">
<path d="M9.928 27.04C9.05333 27.04 7.96533 26.5173 6.664 25.472C5.74667 25.3227 4.95733 25.12 4.296 24.864C3.656 24.6293 3.12267 24.3413 2.696 24C2.09867 23.488 1.576 22.8053 1.128 21.952C0.68 21.0987 0.456 20.2773 0.456 19.488C0.456 18.8907 0.594667 18.3573 0.872 17.888C1.512 16.7573 2.32267 16.192 3.304 16.192C4.05067 16.192 4.488 16.8213 4.616 18.08C4.76533 19.2533 4.88267 20.192 4.968 20.896C5.07467 21.5787 5.16 22.0267 5.224 22.24C5.544 23.2853 6.088 24.1707 6.856 24.896C7.752 25.088 8.72267 25.184 9.768 25.184C12.072 25.184 14.28 24.7467 16.392 23.872C17.288 23.488 18.1627 22.9867 19.016 22.368C19.8693 21.7493 20.5733 21.0667 21.128 20.32C21.6827 19.5733 21.96 18.848 21.96 18.144C21.96 17.1413 21.0747 16.3627 19.304 15.808L13.672 14.528C12.52 14.272 11.592 13.824 10.888 13.184C10.2053 12.5227 9.864 11.776 9.864 10.944C9.864 9.664 10.664 8.384 12.264 7.104C13.0747 6.44267 14.024 5.888 15.112 5.44C16.2 4.97066 17.3413 4.61867 18.536 4.384C19.752 4.128 20.9147 4 22.024 4C23.6027 4 24.9467 4.24533 26.056 4.736C27.1867 5.22666 27.8907 5.94133 28.168 6.88C28.232 7.09333 28.264 7.328 28.264 7.584C28.264 8.88533 27.6133 9.792 26.312 10.304C25.5227 10.624 24.8507 10.784 24.296 10.784C23.9547 10.784 23.688 10.72 23.496 10.592C23.4533 10.5493 23.432 10.496 23.432 10.432C23.432 10.2827 23.7307 10.1973 24.328 10.176C24.6907 10.1547 24.9893 10.1227 25.224 10.08C25.4587 10.0373 25.6293 9.99467 25.736 9.952C26.5467 9.52533 26.952 8.896 26.952 8.064C26.952 7.63733 26.8347 7.18933 26.6 6.72C25.9387 5.504 24.2853 4.896 21.64 4.896C20.68 4.896 19.688 5.00267 18.664 5.216C17.64 5.408 16.6693 5.70667 15.752 6.112C14.8347 6.496 14.056 6.98667 13.416 7.584C12.3067 8.608 11.752 9.52533 11.752 10.336C11.752 10.9547 12.0507 11.5093 12.648 12C13.2667 12.4693 14.1947 12.8213 15.432 13.056L19.208 13.76C20.6587 14.0373 21.832 14.4533 22.728 15.008C23.624 15.5413 24.072 16.3627 24.072 17.472C24.072 18.4533 23.8267 19.3707 23.336 20.224C22.8453 21.0773 22.184 21.8453 21.352 22.528C20.5413 23.1893 19.6133 23.744 18.568 24.192C16.2 25.2373 13.4053 25.76 10.184 25.76C9.77867 25.76 9.37333 25.7493 8.968 25.728C8.56267 25.7067 8.168 25.6747 7.784 25.632C8.08267 25.8027 8.456 25.9733 8.904 26.144C9.37333 26.3147 9.90667 26.4747 10.504 26.624C10.568 26.6453 10.6 26.688 10.6 26.752C10.6 26.944 10.376 27.04 9.928 27.04ZM5.704 24.576C5.128 23.936 4.68 23.2747 4.36 22.592C3.89067 21.5253 3.53867 20.2133 3.304 18.656C3.13333 17.5253 2.952 16.96 2.76 16.96C2.58933 16.96 2.35467 17.088 2.056 17.344C1.77867 17.6 1.64 18.144 1.64 18.976C1.64 20.5973 2.216 22.0053 3.368 23.2C3.944 23.7973 4.72267 24.256 5.704 24.576ZM26.5695 24.416C25.8868 24.416 25.2682 24.2027 24.7135 23.776C24.1588 23.328 23.8815 22.7413 23.8815 22.016C23.8815 20.5013 24.8095 18.7733 26.6655 16.832C28.5642 14.8693 30.2602 13.888 31.7535 13.888C32.2442 13.888 32.6388 14.0267 32.9375 14.304C33.2575 14.56 33.4175 14.88 33.4175 15.264C33.4175 16.4587 32.4682 17.632 30.5695 18.784C28.8842 19.808 27.4655 20.32 26.3135 20.32C26.1428 20.32 25.9935 20.2987 25.8655 20.256C25.5455 20.832 25.3855 21.44 25.3855 22.08C25.3855 23.1893 25.9082 23.744 26.9535 23.744C28.0202 23.744 29.3962 23.0293 31.0815 21.6C32.3828 20.5547 33.4922 19.4453 34.4095 18.272C34.6015 18.016 34.7722 17.888 34.9215 17.888C35.0495 17.888 35.1135 17.952 35.1135 18.08C35.1135 18.208 35.0282 18.3893 34.8575 18.624C34.2602 19.4133 33.6202 20.1387 32.9375 20.8C32.2548 21.4613 31.5188 22.0693 30.7295 22.624C29.0868 23.8187 27.7002 24.416 26.5695 24.416ZM26.7615 19.616C27.5722 19.616 28.6282 19.2107 29.9295 18.4C30.3562 18.1013 30.7722 17.7707 31.1775 17.408C31.6042 17.024 31.9455 16.64 32.2015 16.256C32.4788 15.872 32.6175 15.5307 32.6175 15.232C32.6175 14.9547 32.3935 14.816 31.9455 14.816C31.3055 14.816 30.4095 15.296 29.2575 16.256C28.7028 16.7253 28.1695 17.2373 27.6575 17.792C27.1455 18.3467 26.7082 18.9333 26.3455 19.552C26.4735 19.5947 26.6122 19.616 26.7615 19.616ZM35.5883 24.064C34.9696 24.064 34.3936 23.9147 33.8603 23.616C33.3269 23.296 33.0602 22.7733 33.0602 22.048C33.0602 21.0453 33.4123 19.8507 34.1163 18.464C34.8416 17.0773 35.6629 15.6373 36.5803 14.144C39.0763 10.0907 40.8469 8.064 41.8923 8.064C42.1056 8.064 42.3189 8.14933 42.5323 8.32C42.7669 8.46933 42.8949 8.64 42.9163 8.832L40.6763 11.84C39.8016 13.0133 39.0123 14.1013 38.3083 15.104C37.6043 16.0853 36.9963 16.9707 36.4843 17.76C36.2283 18.1653 35.9403 18.624 35.6203 19.136C35.3003 19.648 35.0123 20.1813 34.7563 20.736C34.5216 21.2693 34.4043 21.8133 34.4043 22.368C34.4043 22.624 34.4789 22.8587 34.6283 23.072C34.7776 23.264 35.0443 23.36 35.4283 23.36C36.1109 23.36 37.0069 22.9973 38.1163 22.272C39.2256 21.5253 40.3243 20.5013 41.4123 19.2C41.5189 19.072 41.6363 18.9547 41.7643 18.848C41.8923 18.7413 41.9989 18.688 42.0843 18.688C42.1909 18.688 42.2443 18.752 42.2443 18.88C42.2443 18.944 42.1696 19.072 42.0203 19.264C41.8923 19.4347 41.7856 19.5733 41.7003 19.68L40.9323 20.544C40.5056 21.0133 39.9936 21.5253 39.3963 22.08C38.8203 22.6347 38.2016 23.104 37.5403 23.488C36.9003 23.872 36.2496 24.064 35.5883 24.064ZM48.4895 24.064C47.9775 24.064 47.7215 23.776 47.7215 23.2C47.9562 22.0053 48.4362 20.6613 49.1615 19.168C49.5028 18.4427 49.8442 17.728 50.1855 17.024C50.5482 16.32 50.9002 15.6053 51.2415 14.88C50.4522 15.4133 49.6628 16.0107 48.8735 16.672C48.0842 17.312 47.3162 18.0373 46.5695 18.848C45.6948 19.7867 44.6815 20.992 43.5295 22.464C42.6975 23.5093 42.2175 24.032 42.0895 24.032C41.7908 24.032 41.5455 23.8933 41.3535 23.616C41.1615 23.3387 41.0655 23.104 41.0655 22.912C41.0655 22.6347 41.3108 21.92 41.8015 20.768C41.9508 20.4053 42.1002 20.0533 42.2495 19.712C42.4202 19.3493 42.5802 18.9973 42.7295 18.656L40.8095 20.672C40.7668 20.7147 40.6388 20.8427 40.4255 21.056C40.2122 21.2693 40.0415 21.376 39.9135 21.376C39.8068 21.376 39.7535 21.3013 39.7535 21.152C39.7535 21.1093 39.7748 21.056 39.8175 20.992C39.8388 20.9067 39.9028 20.8107 40.0095 20.704C40.3295 20.384 40.6602 20.0427 41.0015 19.68C41.3428 19.3173 41.6948 18.9013 42.0575 18.432C42.3348 18.0693 42.7295 17.536 43.2415 16.832C43.7748 16.1067 44.4255 15.2 45.1935 14.112C45.4282 13.792 45.7588 13.632 46.1855 13.632C46.6122 13.632 46.8255 13.8347 46.8255 14.24C46.8255 14.3893 46.2815 15.3813 45.1935 17.216C44.6388 18.1973 44.1908 18.9973 43.8495 19.616C43.5295 20.2347 43.3268 20.6933 43.2415 20.992C43.7108 20.48 44.2655 19.904 44.9055 19.264C45.5668 18.624 46.3242 17.9093 47.1775 17.12C49.8015 14.688 51.5295 13.472 52.3615 13.472C52.5962 13.472 52.8202 13.5467 53.0335 13.696C53.2682 13.8453 53.3855 14.0373 53.3855 14.272C53.3855 14.3787 52.9695 15.1573 52.1375 16.608C51.3268 18.08 50.8788 18.9547 50.7935 19.232C53.1615 17.248 54.3455 16.2453 54.3455 16.224C56.3508 14.6667 57.7908 13.888 58.6655 13.888C58.9215 13.888 59.1562 13.9733 59.3695 14.144C59.6042 14.2933 59.7215 14.4747 59.7215 14.688C59.7215 14.7307 59.0388 15.6267 57.6735 17.376C56.2655 19.1467 55.4762 20.5973 55.3055 21.728C55.2202 22.496 55.6148 22.88 56.4895 22.88C57.0228 22.88 57.7695 22.5387 58.7295 21.856C59.6895 21.1733 60.6922 20.2347 61.7375 19.04C61.8655 18.8907 62.0042 18.752 62.1535 18.624C62.3028 18.4747 62.4308 18.4 62.5375 18.4C62.6655 18.4 62.7295 18.4533 62.7295 18.56C62.7295 18.7093 62.6335 18.88 62.4415 19.072C61.8868 19.7333 61.2255 20.416 60.4575 21.12C59.7108 21.824 58.9642 22.4213 58.2175 22.912C57.4708 23.3813 56.8095 23.616 56.2335 23.616C54.7828 23.616 54.0575 22.944 54.0575 21.6C54.0575 21.1307 54.1855 20.5867 54.4415 19.968C54.6975 19.328 54.9535 18.752 55.2095 18.24C55.8282 17.0453 56.5002 15.9893 57.2255 15.072C56.5428 15.4133 55.8282 15.8613 55.0815 16.416C54.3562 16.9707 53.5988 17.6213 52.8095 18.368C50.9748 20.16 49.7162 21.9733 49.0335 23.808C48.9268 23.9787 48.7455 24.064 48.4895 24.064ZM63.269 24.16C62.757 24.16 62.245 23.9787 61.733 23.616C61.221 23.2533 60.933 22.8267 60.869 22.336C60.6557 20.6933 61.6903 18.7413 63.973 16.48C66.2343 14.2187 68.2717 13.088 70.085 13.088C70.5757 13.088 70.9597 13.2053 71.237 13.44C71.3863 13.5893 71.493 13.792 71.557 14.048C71.6423 14.304 71.7063 14.432 71.749 14.432C71.8343 14.432 71.909 14.4213 71.973 14.4C72.037 14.3573 72.1117 14.336 72.197 14.336C72.453 14.336 72.677 14.432 72.869 14.624C73.061 14.816 73.1677 14.9867 73.189 15.136C73.2103 15.1787 72.5277 16.2347 71.141 18.304C69.7543 20.3307 69.125 21.7067 69.253 22.432C69.3597 22.9227 69.5943 23.168 69.957 23.168C71.0663 23.168 73.093 21.3333 76.037 17.664C76.101 17.5787 76.165 17.536 76.229 17.536C76.3357 17.536 76.389 17.6107 76.389 17.76C76.389 17.9307 76.293 18.144 76.101 18.4C73.3917 22.048 71.3117 23.872 69.861 23.872C69.669 23.872 69.4877 23.84 69.317 23.776C68.3783 23.4133 67.909 22.7093 67.909 21.664C67.909 21.3013 67.9517 20.9387 68.037 20.576L66.053 22.496C65.4557 23.0933 64.9117 23.52 64.421 23.776C63.9517 24.032 63.5677 24.16 63.269 24.16ZM62.981 23.456C64.2183 23.456 65.9037 22.1013 68.037 19.392L71.429 14.72C71.2583 14.4213 70.981 14.272 70.597 14.272C69.2957 14.272 67.5357 15.3173 65.317 17.408C63.013 19.5413 61.9783 21.3013 62.213 22.688C62.3197 23.2 62.5757 23.456 62.981 23.456ZM104.848 26.112C104.251 26.112 103.792 25.8773 103.472 25.408C103.152 24.9387 102.992 24.384 102.992 23.744C102.992 22.5067 103.558 20.8213 104.688 18.688C103.899 18.752 103.11 18.784 102.32 18.784C101.744 18.784 100.656 18.752 99.0563 18.688L94.9603 18.56C93.4669 20.9493 92.2509 23.1253 91.3123 25.088C91.0349 25.664 90.6616 25.952 90.1923 25.952C89.8723 25.952 89.7123 25.8027 89.7123 25.504C89.7123 25.2907 89.7763 25.056 89.9043 24.8C90.2669 24.0107 90.7363 23.0933 91.3123 22.048C91.9096 21.0027 92.6029 19.8293 93.3923 18.528C91.6429 18.528 90.4803 18.6027 89.9043 18.752C88.9443 18.9867 88.2296 19.4667 87.7603 20.192C87.5896 20.4267 87.4509 20.5547 87.3443 20.576C87.2163 20.5973 87.1523 20.544 87.1523 20.416C87.1523 20.3093 87.1949 20.2133 87.2803 20.128C88.0909 19.04 88.9123 18.2827 89.7443 17.856C90.5976 17.408 92.0803 17.216 94.1923 17.28C95.5149 15.296 97.3389 12.352 99.6643 8.448C100.539 6.80533 100.976 5.472 100.976 4.448C100.976 2.784 99.8563 1.952 97.6163 1.952C94.8856 1.952 92.3469 2.66667 90.0003 4.096C88.7629 4.864 87.6003 5.83467 86.5123 7.008C85.4243 8.16 84.5496 9.39733 83.8883 10.72C83.2269 12.0213 82.8963 13.3013 82.8963 14.56C82.8963 16.544 83.8243 17.536 85.6803 17.536C86.5123 17.536 87.2483 17.344 87.8883 16.96C88.5283 16.5547 89.0936 16.0427 89.5843 15.424C90.5443 14.2293 91.0243 13.0453 91.0243 11.872C91.0243 11.2107 90.8536 10.6667 90.5123 10.24C90.4696 10.1973 90.4483 10.144 90.4483 10.08C90.4483 9.93067 90.5336 9.856 90.7043 9.856C90.8109 9.856 90.8749 9.888 90.8963 9.952C91.3229 10.5067 91.5363 11.168 91.5363 11.936C91.5363 13.2373 91.0029 14.5707 89.9363 15.936C89.2749 16.7467 88.5923 17.344 87.8883 17.728C87.2056 18.0907 86.4163 18.272 85.5203 18.272C84.1763 18.272 83.1309 17.856 82.3843 17.024C81.6376 16.1707 81.2643 15.0827 81.2643 13.76C81.2643 11.968 81.7976 10.272 82.8643 8.672C83.9523 7.072 85.3176 5.696 86.9603 4.544C90.2029 2.26133 93.8189 1.17333 97.8083 1.28C98.6616 1.30133 99.4616 1.46133 100.208 1.76C100.955 2.03733 101.552 2.45333 102 3.008C102.47 3.54133 102.704 4.21333 102.704 5.024C102.704 5.51466 102.608 6.048 102.416 6.624C102.246 7.2 101.947 7.808 101.52 8.448L95.7283 17.344C96.1549 17.3653 96.7096 17.408 97.3923 17.472C98.0749 17.5147 98.8856 17.5893 99.8243 17.696C100.614 17.7813 101.275 17.8453 101.808 17.888C102.342 17.9093 102.747 17.92 103.024 17.92C103.515 17.92 103.931 17.92 104.272 17.92C104.635 17.92 104.923 17.9093 105.136 17.888L106.352 15.872C107.419 14.1013 108.528 12.4267 109.68 10.848C110.854 9.248 112.07 7.744 113.328 6.336C116.187 3.17867 118.63 1.23733 120.656 0.511999C120.72 0.490666 120.795 0.48 120.88 0.48C121.008 0.48 121.072 0.565332 121.072 0.735998C121.072 0.799999 121.04 0.853332 120.976 0.895998C120.315 1.25867 119.504 1.89867 118.544 2.816C117.606 3.712 116.507 4.88533 115.248 6.336C113.926 7.872 112.699 9.408 111.568 10.944C110.438 12.48 109.414 14.0267 108.496 15.584L107.248 17.696C108.23 17.568 108.934 17.3227 109.36 16.96C109.446 16.896 109.52 16.928 109.584 17.056C109.648 17.2053 109.638 17.312 109.552 17.376C108.912 17.8667 108.006 18.2187 106.832 18.432C105.339 21.2053 104.592 23.1573 104.592 24.288C104.592 25.0133 104.902 25.376 105.52 25.376C105.947 25.376 106.438 25.2267 106.992 24.928C107.568 24.6507 108.027 24.3307 108.368 23.968C108.411 23.9253 108.443 23.904 108.464 23.904C108.528 23.904 108.56 23.968 108.56 24.096C108.539 24.2453 108.486 24.3627 108.4 24.448C108.144 24.704 107.803 24.96 107.376 25.216C106.95 25.472 106.502 25.6853 106.032 25.856C105.584 26.0267 105.19 26.112 104.848 26.112ZM113.238 24.16C112.726 24.16 112.214 23.9787 111.702 23.616C111.19 23.2533 110.902 22.8267 110.838 22.336C110.624 20.6933 111.659 18.7413 113.942 16.48C116.203 14.2187 118.24 13.088 120.054 13.088C120.544 13.088 120.928 13.2053 121.206 13.44C121.355 13.5893 121.462 13.792 121.526 14.048C121.611 14.304 121.675 14.432 121.718 14.432C121.803 14.432 121.878 14.4213 121.942 14.4C122.006 14.3573 122.08 14.336 122.166 14.336C122.422 14.336 122.646 14.432 122.838 14.624C123.03 14.816 123.136 14.9867 123.158 15.136C123.179 15.1787 122.496 16.2347 121.11 18.304C119.723 20.3307 119.094 21.7067 119.222 22.432C119.328 22.9227 119.563 23.168 119.926 23.168C121.035 23.168 123.062 21.3333 126.006 17.664C126.07 17.5787 126.134 17.536 126.198 17.536C126.304 17.536 126.358 17.6107 126.358 17.76C126.358 17.9307 126.262 18.144 126.07 18.4C123.36 22.048 121.28 23.872 119.83 23.872C119.638 23.872 119.456 23.84 119.286 23.776C118.347 23.4133 117.878 22.7093 117.878 21.664C117.878 21.3013 117.92 20.9387 118.006 20.576L116.022 22.496C115.424 23.0933 114.88 23.52 114.39 23.776C113.92 24.032 113.536 24.16 113.238 24.16ZM112.95 23.456C114.187 23.456 115.872 22.1013 118.006 19.392L121.398 14.72C121.227 14.4213 120.95 14.272 120.566 14.272C119.264 14.272 117.504 15.3173 115.286 17.408C112.982 19.5413 111.947 21.3013 112.182 22.688C112.288 23.2 112.544 23.456 112.95 23.456ZM126.425 24.16C125.785 24.16 125.241 23.9893 124.793 23.648C124.345 23.2853 124.089 22.848 124.025 22.336C123.94 21.6533 124.036 20.9707 124.313 20.288C124.612 19.584 125.007 18.912 125.497 18.272C126.009 17.632 126.553 17.0347 127.129 16.48C129.391 14.2187 131.428 13.088 133.241 13.088C133.86 13.088 134.276 13.248 134.489 13.568C134.575 13.6747 134.671 13.92 134.777 14.304C137.167 10.4213 138.831 8.48 139.769 8.48C139.983 8.48 140.207 8.53333 140.441 8.64C140.676 8.74667 140.793 8.88533 140.793 9.056C140.793 9.16267 140.74 9.30133 140.633 9.472C139.993 10.2613 139.353 11.0507 138.713 11.84C138.073 12.608 137.444 13.3867 136.825 14.176C135.78 15.4987 134.937 16.6507 134.297 17.632C133.657 18.6133 133.199 19.4453 132.921 20.128C132.836 20.3413 132.751 20.608 132.665 20.928C132.601 21.2267 132.569 21.536 132.569 21.856C132.569 22.2613 132.655 22.6133 132.825 22.912C132.996 23.2107 133.305 23.36 133.753 23.36C134.457 23.36 135.321 23.0187 136.345 22.336C137.369 21.6533 138.564 20.5333 139.929 18.976C140.015 18.8907 140.089 18.816 140.153 18.752C140.239 18.688 140.324 18.6453 140.409 18.624C140.601 18.5813 140.697 18.624 140.697 18.752C140.697 18.816 140.633 18.9333 140.505 19.104C139.844 19.8933 139.108 20.672 138.297 21.44C137.487 22.208 136.655 22.848 135.801 23.36C134.969 23.8507 134.191 24.096 133.465 24.096C132.74 24.096 132.228 23.8507 131.929 23.36C131.631 22.8693 131.481 22.3147 131.481 21.696C131.481 21.056 131.599 20.4693 131.833 19.936L129.241 22.528C128.665 23.104 128.132 23.52 127.641 23.776C127.172 24.032 126.767 24.16 126.425 24.16ZM126.137 23.456C127.055 23.456 128.58 22.1973 130.713 19.68C130.82 19.552 131.193 19.0827 131.833 18.272C132.473 17.44 133.38 16.2347 134.553 14.656C134.404 14.4 134.148 14.272 133.785 14.272C132.463 14.272 130.692 15.3173 128.473 17.408C126.383 19.3493 125.337 20.9813 125.337 22.304C125.337 23.072 125.604 23.456 126.137 23.456ZM146.611 24.704C145.992 24.704 145.373 24.64 144.755 24.512C144.157 24.384 143.613 24.1813 143.123 23.904C142.973 23.8187 142.749 23.68 142.451 23.488C142.173 23.296 141.811 23.0293 141.363 22.688C141.021 22.9227 140.701 23.136 140.403 23.328C140.104 23.4987 139.816 23.584 139.539 23.584C139.048 23.584 138.803 23.3173 138.803 22.784C138.803 22.6133 138.867 22.3893 138.995 22.112C139.101 21.8133 139.229 21.664 139.379 21.664C139.485 21.664 139.539 21.7387 139.539 21.888C139.539 21.9947 139.528 22.08 139.507 22.144C139.507 22.1653 139.496 22.1973 139.475 22.24C139.475 22.2613 139.475 22.2827 139.475 22.304C139.475 22.5173 139.581 22.624 139.795 22.624C140.072 22.624 140.381 22.496 140.723 22.24L139.507 21.312C139.464 21.2693 139.443 21.216 139.443 21.152C139.443 21.0027 139.549 20.832 139.763 20.64C139.976 20.4267 140.168 20.32 140.339 20.32C140.403 20.32 140.893 20.6827 141.811 21.408C142.664 20.448 143.549 19.4987 144.467 18.56C145.149 17.8347 145.747 17.216 146.259 16.704C146.792 16.192 147.251 15.7973 147.635 15.52C145.949 15.008 144.701 14.752 143.891 14.752C143.379 14.752 142.963 14.8693 142.643 15.104C142.323 15.3173 142.163 15.5947 142.163 15.936C142.163 16.2133 142.312 16.4693 142.611 16.704C142.781 16.832 142.867 16.9387 142.867 17.024C142.867 17.152 142.813 17.216 142.707 17.216C142.493 17.216 142.205 17.0027 141.843 16.576C141.501 16.1493 141.331 15.712 141.331 15.264C141.331 14.816 141.491 14.4747 141.811 14.24C142.152 14.0053 142.568 13.8453 143.059 13.76C143.549 13.6747 144.029 13.632 144.499 13.632C145.181 13.632 145.928 13.76 146.739 14.016C147.549 14.272 148.349 14.528 149.139 14.784C149.437 14.6133 149.757 14.528 150.099 14.528C150.995 14.528 151.443 14.7947 151.443 15.328C151.443 15.5413 151.304 15.744 151.027 15.936C150.771 16.1067 150.451 16.192 150.067 16.192C149.661 16.192 149.299 16.1173 148.979 15.968C146.973 17.2053 144.797 19.1893 142.451 21.92L143.603 22.816C144.093 23.1787 144.627 23.424 145.203 23.552C145.8 23.6587 146.387 23.712 146.963 23.712C147.901 23.712 148.701 23.5413 149.363 23.2C150.024 22.8587 150.355 22.3467 150.355 21.664C150.355 21.3867 150.312 21.152 150.227 20.96C150.184 20.832 150.163 20.7573 150.163 20.736C150.163 20.5867 150.269 20.512 150.483 20.512C150.589 20.512 150.664 20.5653 150.707 20.672C150.877 21.056 150.963 21.4187 150.963 21.76C150.963 22.6133 150.557 23.3173 149.747 23.872C148.957 24.4267 147.912 24.704 146.611 24.704ZM158.635 12.992C158.272 12.992 157.952 12.8747 157.675 12.64C157.419 12.4053 157.291 12.1387 157.291 11.84C157.291 11.2427 157.696 10.944 158.507 10.944C158.805 10.944 159.104 11.0507 159.403 11.264C159.701 11.456 159.851 11.7013 159.851 12C159.851 12.256 159.712 12.4907 159.435 12.704C159.157 12.896 158.891 12.992 158.635 12.992ZM152.715 24.352C152.245 24.352 151.861 24.2027 151.562 23.904C151.242 23.584 151.082 23.0293 151.082 22.24C151.082 21.792 151.189 21.28 151.402 20.704C151.595 20.1067 151.84 19.5093 152.139 18.912C152.459 18.3147 152.768 17.7813 153.067 17.312C154.261 15.3707 155.243 14.3893 156.011 14.368C156.203 14.368 156.437 14.4533 156.715 14.624C156.992 14.7733 157.131 14.944 157.131 15.136C157.131 15.136 156.32 16.1813 154.699 18.272C153.099 20.3413 152.299 21.8133 152.299 22.688C152.299 23.3707 152.565 23.712 153.099 23.712C153.44 23.712 153.877 23.5733 154.411 23.296C154.965 22.9973 155.541 22.624 156.139 22.176C156.736 21.728 157.301 21.248 157.835 20.736C158.389 20.224 158.837 19.7547 159.179 19.328C159.392 19.0507 159.573 18.8587 159.723 18.752C159.893 18.6453 160 18.592 160.043 18.592C160.128 18.592 160.171 18.656 160.171 18.784C160.171 18.8907 160.043 19.104 159.786 19.424C159.552 19.744 159.221 20.1173 158.795 20.544C158.283 21.056 157.717 21.6107 157.099 22.208C156.48 22.8053 155.808 23.3173 155.083 23.744C154.357 24.1493 153.568 24.352 152.715 24.352ZM165.437 12.928C165.075 12.928 164.755 12.8213 164.477 12.608C164.221 12.3733 164.093 12.1067 164.093 11.808C164.093 11.1893 164.499 10.88 165.309 10.88C165.608 10.88 165.907 10.9867 166.205 11.2C166.504 11.4133 166.653 11.6693 166.653 11.968C166.653 12.224 166.515 12.448 166.237 12.64C165.96 12.832 165.693 12.928 165.437 12.928ZM152.893 30.56C152.253 30.56 151.667 30.3573 151.133 29.952C150.579 29.5253 150.301 29.0987 150.301 28.672C150.301 28.2667 150.397 28.064 150.589 28.064C150.611 28.064 150.824 28.3307 151.229 28.864C151.656 29.4187 152.147 29.696 152.701 29.696C154.408 29.696 156.349 27.7653 158.525 23.904C159.187 22.7093 159.741 21.632 160.189 20.672C160.659 19.6907 161.021 18.816 161.277 18.048C161.085 18.2613 160.808 18.5493 160.445 18.912C160.083 19.2533 159.731 19.5627 159.389 19.84C159.069 20.096 158.835 20.224 158.685 20.224C158.621 20.224 158.589 20.192 158.589 20.128C158.589 19.936 158.728 19.712 159.005 19.456C159.411 19.1147 159.891 18.5493 160.445 17.76C161.064 16.8853 161.416 16.4053 161.501 16.32L162.557 15.2C162.984 14.7947 163.411 14.592 163.837 14.592C164.413 14.592 164.701 14.8267 164.701 15.296C164.701 15.3813 164.328 16.0853 163.581 17.408L162.173 19.84C160.531 22.976 159.261 25.1627 158.365 26.4C156.424 29.1733 154.6 30.56 152.893 30.56ZM166.723 24.352C165.763 24.352 165.283 23.744 165.283 22.528C165.283 22.0587 165.421 21.504 165.699 20.864C165.997 20.2027 166.413 19.5093 166.947 18.784C166.947 18.784 166.755 18.9653 166.371 19.328C165.987 19.6907 165.549 20.1493 165.059 20.704C164.973 20.7893 164.867 20.832 164.739 20.832C164.653 20.832 164.611 20.7787 164.611 20.672C164.611 20.5653 164.707 20.384 164.899 20.128L169.315 14.944C169.869 14.304 170.477 13.984 171.139 13.984C171.629 13.984 171.875 14.176 171.875 14.56C171.875 14.7093 171.811 14.848 171.683 14.976C171.277 15.36 170.776 15.904 170.179 16.608C169.603 17.312 169.037 18.0693 168.483 18.88C167.928 19.6907 167.459 20.4693 167.075 21.216C166.712 21.9413 166.531 22.528 166.531 22.976C166.531 23.36 166.659 23.552 166.915 23.552C167.064 23.552 167.299 23.4987 167.619 23.392C167.939 23.264 168.365 23.0187 168.899 22.656C169.432 22.272 170.072 21.6853 170.819 20.896C170.947 20.768 171.288 20.384 171.843 19.744C172.397 19.104 173.144 18.1867 174.083 16.992C175.747 14.9227 176.835 13.888 177.347 13.888C178.051 13.888 178.435 14.176 178.499 14.752C178.541 14.944 178.093 15.5733 177.155 16.64C175.939 18.112 175.107 19.168 174.659 19.808C173.827 21.024 173.411 21.9733 173.411 22.656C173.411 23.1253 173.571 23.36 173.891 23.36C174.211 23.36 174.616 23.2107 175.107 22.912C175.619 22.592 176.152 22.1973 176.707 21.728C177.261 21.2373 177.795 20.736 178.307 20.224C178.84 19.6907 179.299 19.2 179.683 18.752C179.811 18.6027 179.939 18.528 180.067 18.528C180.195 18.528 180.259 18.592 180.259 18.72C180.259 18.7627 180.248 18.8267 180.227 18.912C180.205 18.9973 180.141 19.0933 180.035 19.2C179.693 19.584 179.256 20.064 178.723 20.64C178.189 21.1947 177.613 21.7493 176.995 22.304C176.376 22.8587 175.779 23.3173 175.203 23.68C174.627 24.0427 174.136 24.224 173.731 24.224C173.24 24.224 172.813 24.096 172.451 23.84C172.088 23.5627 171.907 23.1893 171.907 22.72C171.907 22.2507 171.981 21.7813 172.131 21.312C172.28 20.8213 172.397 20.4053 172.483 20.064C171.48 21.2373 170.595 22.1333 169.827 22.752C169.08 23.3707 168.451 23.7867 167.939 24C167.427 24.2347 167.021 24.352 166.723 24.352ZM182.493 24.064C181.49 24.064 180.743 23.7333 180.253 23.072C179.783 22.4107 179.399 21.4933 179.101 20.32C178.716 20.704 178.45 20.896 178.3 20.896C178.194 20.896 178.14 20.8107 178.14 20.64C178.14 20.512 178.194 20.3947 178.3 20.288C178.3 20.288 178.567 19.9573 179.101 19.296C179.655 18.6347 180.583 17.7067 181.885 16.512L185.917 12.736C186.471 12.2027 186.909 11.7973 187.229 11.52C187.57 11.2427 187.815 11.104 187.965 11.104C188.647 11.104 188.989 11.36 188.989 11.872C188.989 12.128 188.85 12.4267 188.573 12.768C188.359 13.024 188.199 13.2267 188.093 13.376C188.007 13.504 187.954 13.5787 187.933 13.6C187.549 14.2613 187.197 15.4453 186.877 17.152C186.642 18.4107 186.439 19.4453 186.269 20.256C186.098 21.0667 185.959 21.6533 185.853 22.016C186.749 21.9947 187.634 21.7173 188.509 21.184C189.383 20.6507 190.322 19.776 191.325 18.56C191.367 18.5173 191.431 18.4533 191.517 18.368C191.602 18.2827 191.687 18.24 191.773 18.24C191.901 18.24 191.965 18.2933 191.965 18.4C191.965 18.5067 191.933 18.6133 191.869 18.72C191.805 18.8267 191.741 18.9227 191.677 19.008C191.015 19.7973 190.397 20.448 189.821 20.96C189.245 21.4507 188.637 21.8453 187.997 22.144C187.356 22.4213 186.599 22.656 185.725 22.848L184.701 23.52C184.423 23.712 184.093 23.8507 183.709 23.936C183.325 24.0213 182.919 24.064 182.493 24.064ZM182.877 22.432C183.367 22.432 183.773 22.3147 184.093 22.08C184.327 21.952 184.551 21.6 184.765 21.024C184.999 20.4267 185.223 19.6907 185.437 18.816C185.607 18.0693 185.735 17.344 185.821 16.64C185.927 15.9147 186.023 15.2213 186.109 14.56L186.237 13.472C185.746 13.8347 185.127 14.3573 184.381 15.04C183.634 15.7227 182.898 16.4373 182.173 17.184C181.447 17.9307 180.978 18.4853 180.765 18.848C180.551 19.1893 180.434 19.4453 180.413 19.616C180.327 20.4693 180.53 21.152 181.021 21.664C181.533 22.176 182.151 22.432 182.877 22.432ZM191.817 24.352C190.857 24.352 190.377 23.744 190.377 22.528C190.377 22.0587 190.515 21.504 190.793 20.864C191.091 20.2027 191.507 19.5093 192.041 18.784C192.041 18.784 191.849 18.9653 191.465 19.328C191.081 19.6907 190.643 20.1493 190.152 20.704C190.067 20.7893 189.96 20.832 189.832 20.832C189.747 20.832 189.704 20.7787 189.704 20.672C189.704 20.5653 189.8 20.384 189.992 20.128L194.409 14.944C194.963 14.304 195.571 13.984 196.233 13.984C196.723 13.984 196.969 14.176 196.969 14.56C196.969 14.7093 196.905 14.848 196.777 14.976C196.371 15.36 195.87 15.904 195.273 16.608C194.697 17.312 194.131 18.0693 193.577 18.88C193.022 19.6907 192.553 20.4693 192.169 21.216C191.806 21.9413 191.625 22.528 191.625 22.976C191.625 23.36 191.753 23.552 192.009 23.552C192.158 23.552 192.393 23.4987 192.713 23.392C193.033 23.264 193.459 23.0187 193.993 22.656C194.526 22.272 195.166 21.6853 195.913 20.896C196.041 20.768 196.382 20.384 196.937 19.744C197.491 19.104 198.238 18.1867 199.177 16.992C200.841 14.9227 201.929 13.888 202.441 13.888C203.145 13.888 203.529 14.176 203.593 14.752C203.635 14.944 203.187 15.5733 202.249 16.64C201.033 18.112 200.201 19.168 199.753 19.808C198.921 21.024 198.505 21.9733 198.505 22.656C198.505 23.1253 198.665 23.36 198.985 23.36C199.305 23.36 199.71 23.2107 200.201 22.912C200.713 22.592 201.246 22.1973 201.801 21.728C202.355 21.2373 202.889 20.736 203.401 20.224C203.934 19.6907 204.393 19.2 204.777 18.752C204.905 18.6027 205.033 18.528 205.161 18.528C205.289 18.528 205.353 18.592 205.353 18.72C205.353 18.7627 205.342 18.8267 205.321 18.912C205.299 18.9973 205.235 19.0933 205.129 19.2C204.787 19.584 204.35 20.064 203.817 20.64C203.283 21.1947 202.707 21.7493 202.089 22.304C201.47 22.8587 200.873 23.3173 200.297 23.68C199.721 24.0427 199.23 24.224 198.825 24.224C198.334 24.224 197.907 24.096 197.545 23.84C197.182 23.5627 197.001 23.1893 197.001 22.72C197.001 22.2507 197.075 21.7813 197.225 21.312C197.374 20.8213 197.491 20.4053 197.577 20.064C196.574 21.2373 195.689 22.1333 194.921 22.752C194.174 23.3707 193.545 23.7867 193.033 24C192.521 24.2347 192.115 24.352 191.817 24.352ZM198.466 30.56C197.826 30.56 197.282 30.2933 196.834 29.76C196.386 29.2267 196.152 28.6507 196.13 28.032C196.194 27.776 196.29 27.648 196.418 27.648C196.546 27.648 196.621 27.808 196.642 28.128C196.664 28.4693 196.834 28.8 197.154 29.12C197.474 29.44 197.794 29.6 198.114 29.6C199.928 29.6 201.581 28.48 203.074 26.24C203.48 25.6427 203.981 24.7787 204.578 23.648C205.176 22.496 205.837 21.056 206.562 19.328L208.29 15.168C206.157 15.1467 205.09 14.8907 205.09 14.4C205.09 14.1653 205.197 13.984 205.41 13.856C205.624 13.7067 205.794 13.632 205.922 13.632C205.944 13.632 206.21 13.6427 206.722 13.664C207.234 13.664 207.97 13.6747 208.93 13.696C211.021 9.04533 212.941 6.72 214.69 6.72C215.373 6.72 216.045 7.04 216.706 7.68C216.877 7.85067 216.962 8.07467 216.962 8.352C216.962 9.01333 216.77 9.344 216.386 9.344C216.28 9.344 216.173 9.25867 216.066 9.088C215.981 8.93867 215.842 8.82133 215.65 8.736C215.458 8.62933 215.277 8.576 215.106 8.576C214.466 8.576 213.901 8.82133 213.41 9.312C212.941 9.78133 212.493 10.4 212.066 11.168C211.661 11.936 211.224 12.7787 210.754 13.696H211.138C213.464 13.696 215.01 13.664 215.778 13.6C215.864 13.6213 215.906 13.664 215.906 13.728C215.906 13.8987 215.149 14.1333 213.634 14.432C213.037 14.5173 212.45 14.6133 211.874 14.72C211.298 14.8267 210.712 14.9333 210.114 15.04C209.837 15.6373 209.496 16.352 209.09 17.184C208.685 17.9947 208.226 18.9013 207.714 19.904C206.712 21.7813 205.89 23.2747 205.25 24.384C204.61 25.4933 204.162 26.2293 203.906 26.592C202.05 29.2373 200.237 30.56 198.466 30.56ZM213.032 24.064C212.499 24.064 212.083 23.8187 211.784 23.328C211.486 22.816 211.336 22.3253 211.336 21.856C211.336 20.576 212.264 18.784 214.12 16.48C215.998 14.1547 217.512 12.992 218.664 12.992C219.752 12.992 220.296 13.568 220.296 14.72C220.296 14.8907 220.275 15.072 220.232 15.264C220.211 15.456 220.179 15.6587 220.136 15.872C220.179 15.936 220.286 15.968 220.456 15.968C221.032 15.968 221.715 15.7653 222.504 15.36C222.483 15.7227 221.64 16.2453 219.976 16.928C220.211 17.632 219.507 18.976 217.864 20.96C216.179 23.0293 214.739 24.064 213.544 24.064H213.032ZM213.608 23.104C214.526 23.104 215.699 22.2613 217.128 20.576C218.515 18.9333 219.208 17.7493 219.208 17.024C218.867 16.832 218.44 16.3413 217.928 15.552C217.203 15.552 216.158 16.4267 214.792 18.176C213.448 19.8827 212.798 21.1947 212.84 22.112C212.862 22.7733 213.118 23.104 213.608 23.104ZM221.712 24.096C221.584 24.096 221.403 24.0427 221.168 23.936C220.934 23.808 220.72 23.6693 220.528 23.52C220.336 23.3493 220.23 23.2 220.208 23.072C220.187 22.9013 220.304 22.4213 220.56 21.632C220.795 20.8213 221.179 19.7227 221.712 18.336C222.246 16.928 222.694 15.84 223.056 15.072C223.419 14.304 223.686 13.8453 223.856 13.696C223.942 13.6107 224.059 13.568 224.208 13.568C224.443 13.568 224.667 13.6747 224.88 13.888C225.094 14.08 225.211 14.3147 225.232 14.592C225.232 14.6133 224.699 15.872 223.632 18.368C222.587 20.7787 222.096 22.2187 222.16 22.688C223.099 22.3893 224.667 21.3333 226.864 19.52C228.187 18.4107 229.136 17.408 229.712 16.512C230.31 15.5947 230.608 14.7733 230.608 14.048C230.608 13.6213 230.502 13.2373 230.288 12.896C230.096 12.5333 229.734 12.2347 229.2 12C229.051 11.936 228.976 11.84 228.976 11.712C228.976 11.52 229.094 11.424 229.328 11.424C229.947 11.424 230.48 11.6267 230.928 12.032C231.398 12.4373 231.632 13.0453 231.632 13.856C231.632 14.7093 231.27 15.68 230.544 16.768C229.819 17.8347 228.784 18.976 227.44 20.192C226.267 21.2373 225.2 22.0907 224.24 22.752C223.302 23.4133 222.459 23.8613 221.712 24.096ZM237.353 12.992C236.991 12.992 236.671 12.8747 236.393 12.64C236.137 12.4053 236.009 12.1387 236.009 11.84C236.009 11.2427 236.415 10.944 237.225 10.944C237.524 10.944 237.823 11.0507 238.121 11.264C238.42 11.456 238.569 11.7013 238.569 12C238.569 12.256 238.431 12.4907 238.153 12.704C237.876 12.896 237.609 12.992 237.353 12.992ZM231.433 24.352C230.964 24.352 230.58 24.2027 230.281 23.904C229.961 23.584 229.801 23.0293 229.801 22.24C229.801 21.792 229.908 21.28 230.121 20.704C230.313 20.1067 230.559 19.5093 230.857 18.912C231.177 18.3147 231.487 17.7813 231.785 17.312C232.98 15.3707 233.961 14.3893 234.729 14.368C234.921 14.368 235.156 14.4533 235.433 14.624C235.711 14.7733 235.849 14.944 235.849 15.136C235.849 15.136 235.039 16.1813 233.417 18.272C231.817 20.3413 231.017 21.8133 231.017 22.688C231.017 23.3707 231.284 23.712 231.817 23.712C232.159 23.712 232.596 23.5733 233.129 23.296C233.684 22.9973 234.26 22.624 234.857 22.176C235.455 21.728 236.02 21.248 236.553 20.736C237.108 20.224 237.556 19.7547 237.897 19.328C238.111 19.0507 238.292 18.8587 238.441 18.752C238.612 18.6453 238.719 18.592 238.761 18.592C238.847 18.592 238.889 18.656 238.889 18.784C238.889 18.8907 238.761 19.104 238.505 19.424C238.271 19.744 237.94 20.1173 237.513 20.544C237.001 21.056 236.436 21.6107 235.817 22.208C235.199 22.8053 234.527 23.3173 233.801 23.744C233.076 24.1493 232.287 24.352 231.433 24.352ZM239.932 24.416C239.249 24.416 238.631 24.2027 238.076 23.776C237.521 23.328 237.244 22.7413 237.244 22.016C237.244 20.5013 238.172 18.7733 240.028 16.832C241.927 14.8693 243.623 13.888 245.116 13.888C245.628 13.888 246.033 14.0267 246.332 14.304C246.631 14.56 246.78 14.88 246.78 15.264C246.78 15.7973 246.652 16.288 246.396 16.736C246.097 17.2907 245.671 17.568 245.116 17.568C244.561 17.568 244.284 17.3973 244.284 17.056C244.284 16.8213 244.423 16.4693 244.7 16C244.999 15.5093 245.148 15.2533 245.148 15.232C245.148 15.1893 245.116 15.168 245.052 15.168C244.455 15.232 243.623 15.6693 242.556 16.48C242.087 16.8427 241.671 17.184 241.308 17.504C240.967 17.824 240.689 18.1333 240.476 18.432L239.228 20.256C239.1 20.448 238.961 20.7787 238.812 21.248C238.684 21.7173 238.62 22.0693 238.62 22.304C238.62 22.7307 238.759 23.0827 239.036 23.36C239.335 23.6373 239.708 23.776 240.156 23.776C241.223 23.776 242.631 23.0827 244.38 21.696C245.788 20.5867 246.919 19.4667 247.772 18.336C247.879 18.208 248.007 18.144 248.156 18.144C248.305 18.144 248.38 18.1867 248.38 18.272C248.38 18.336 248.327 18.4427 248.22 18.592C247.047 20.1493 245.671 21.4933 244.092 22.624C242.407 23.8187 241.02 24.416 239.932 24.416Z" fill="white"/>
</svg>
