<svg width="40" height="40" viewBox="0 0 40 40" fill="none" xmlns="http://www.w3.org/2000/svg">
<path d="M0 20C0 8.95431 8.95431 0 20 0H40V20C40 31.0457 31.0457 40 20 40V40C8.95431 40 0 31.0457 0 20V20Z" fill="#8643DC"/>
<path d="M16 10C16 4.47715 20.4772 0 26 0H40V13C40 18.5228 35.5228 23 30 23H16V10Z" fill="#FF59C1"/>
<path d="M12.26 27.24C11.14 27.24 10.0667 27.0933 9.04 26.8C8.01333 26.4933 7.18667 26.1 6.56 25.62L7.66 23.18C8.26 23.6067 8.96667 23.96 9.78 24.24C10.6067 24.5067 11.44 24.64 12.28 24.64C12.92 24.64 13.4333 24.58 13.82 24.46C14.22 24.3267 14.5133 24.1467 14.7 23.92C14.8867 23.6933 14.98 23.4333 14.98 23.14C14.98 22.7667 14.8333 22.4733 14.54 22.26C14.2467 22.0333 13.86 21.8533 13.38 21.72C12.9 21.5733 12.3667 21.44 11.78 21.32C11.2067 21.1867 10.6267 21.0267 10.04 20.84C9.46667 20.6533 8.94 20.4133 8.46 20.12C7.98 19.8267 7.58667 19.44 7.28 18.96C6.98667 18.48 6.84 17.8667 6.84 17.12C6.84 16.32 7.05333 15.5933 7.48 14.94C7.92 14.2733 8.57333 13.7467 9.44 13.36C10.32 12.96 11.42 12.76 12.74 12.76C13.62 12.76 14.4867 12.8667 15.34 13.08C16.1933 13.28 16.9467 13.5867 17.6 14L16.6 16.46C15.9467 16.0867 15.2933 15.8133 14.64 15.64C13.9867 15.4533 13.3467 15.36 12.72 15.36C12.0933 15.36 11.58 15.4333 11.18 15.58C10.78 15.7267 10.4933 15.92 10.32 16.16C10.1467 16.3867 10.06 16.6533 10.06 16.96C10.06 17.32 10.2067 17.6133 10.5 17.84C10.7933 18.0533 11.18 18.2267 11.66 18.36C12.14 18.4933 12.6667 18.6267 13.24 18.76C13.8267 18.8933 14.4067 19.0467 14.98 19.22C15.5667 19.3933 16.1 19.6267 16.58 19.92C17.06 20.2133 17.4467 20.6 17.74 21.08C18.0467 21.56 18.2 22.1667 18.2 22.9C18.2 23.6867 17.98 24.4067 17.54 25.06C17.1 25.7133 16.44 26.24 15.56 26.64C14.6933 27.04 13.5933 27.24 12.26 27.24ZM30.0139 13H33.2539V27H30.0139V13ZM23.6539 27H20.4139V13H23.6539V27ZM30.2539 21.26H23.4139V18.52H30.2539V21.26Z" fill="white"/>
</svg>
